Coordinates
version=1
nRows=17
nColumns=38
inDegrees=no

Units are S.I. units (second, meters, Newtons, ...)
If the header above contains a line with 'inDegrees', this indicates whether rotational values are in degrees (yes) or radians (no).

endheader
time	pelvis_tilt	pelvis_list	pelvis_rotation	pelvis_tx	pelvis_ty	pelvis_tz	hip_flexion_r	hip_adduction_r	hip_rotation_r	knee_angle_r	ankle_angle_r	subtalar_angle_r	mtp_angle_r	hip_flexion_l	hip_adduction_l	hip_rotation_l	knee_angle_l	ankle_angle_l	subtalar_angle_l	mtp_angle_l	lumbar_extension	lumbar_bending	lumbar_rotation	arm_flex_r	arm_add_r	arm_rot_r	elbow_flex_r	pro_sup_r	wrist_flex_r	wrist_dev_r	arm_flex_l	arm_add_l	arm_rot_l	elbow_flex_l	pro_sup_l	wrist_flex_l	wrist_dev_l
2.23	2.66788	1.46483	-0.940041	0.515312	1.65212	0.920772	0.289337	-0.0361069	-0.190421	0.201068	-0.320146	0	0	-0.38234	-0.0789114	-0.299436	0.175242	-0.137486	0	0	-0.145478	0.0862337	-0.2575	-0.210116	-0.272941	-0.0882923	0.729668	0.393251	0	0	0.0552314	-0.320169	0.115432	0.888248	1.45073	0	0
2.24	2.62614	1.46267	-0.896249	0.515689	1.66378	0.920405	0.293837	-0.028192	-0.193575	0.229178	-0.321037	0	0	-0.383425	-0.0915278	-0.312389	0.199264	-0.141081	0	0	-0.144302	0.0915125	-0.28139	-0.191659	-0.301846	0.00663504	0.721766	0.316027	0	0	0.0267007	-0.314971	0.0711351	0.908509	1.46937	0	0
2.25	2.58691	1.45912	-0.854157	0.516032	1.67561	0.920317	0.293092	-0.0196826	-0.19491	0.243886	-0.336847	0	0	-0.38509	-0.105134	-0.323009	0.223249	-0.14762	0	0	-0.141317	0.0979172	-0.292716	-0.188669	-0.301207	0.0108711	0.717508	0.319854	0	0	0.014655	-0.310971	0.0575608	0.91185	1.47365	0	0
2.26	2.54942	1.45584	-0.813172	0.516309	1.68769	0.920333	0.290825	-0.0122017	-0.199613	0.254695	-0.362101	0	0	-0.384504	-0.119612	-0.334533	0.250844	-0.157555	0	0	-0.137472	0.104073	-0.306296	-0.185213	-0.299909	0.0142042	0.711879	0.326498	0	0	-0.000310721	-0.306038	0.0408124	0.915493	1.47856	0	0
2.27	2.51973	1.45264	-0.779801	0.516594	1.69999	0.920503	0.285522	-0.00522302	-0.207224	0.263016	-0.385336	0	0	-0.382798	-0.133855	-0.344868	0.280643	-0.171739	0	0	-0.133253	0.109348	-0.32056	-0.182195	-0.298015	0.0150437	0.705514	0.335658	0	0	-0.0165284	-0.30037	0.0231592	0.918164	1.4833	0	0
2.28	2.49557	1.44947	-0.752268	0.517051	1.71243	0.920847	0.278517	0.00169639	-0.216494	0.272159	-0.396425	0	0	-0.380246	-0.147589	-0.350672	0.311657	-0.179245	0	0	-0.124665	0.113566	-0.317668	-0.196397	-0.290881	-0.0133104	0.706118	0.350723	0	0	-0.0120587	-0.299863	0.0473386	0.899834	1.46479	0	0
2.29	2.46559	1.4468	-0.720303	0.517727	1.72498	0.921321	0.273431	0.00847671	-0.227114	0.28553	-0.408209	0	0	-0.374482	-0.161785	-0.355288	0.346248	-0.197744	0	0	-0.119295	0.117618	-0.330837	-0.192665	-0.292605	-0.0012567	0.697904	0.348154	0	0	-0.0304752	-0.29409	0.028765	0.900937	1.47116	0	0
2.3	2.43327	1.44445	-0.687938	0.518642	1.73758	0.921926	0.27087	0.0145444	-0.237206	0.304903	-0.414981	0	0	-0.366527	-0.175262	-0.356525	0.382717	-0.22302	0	0	-0.113506	0.12116	-0.343266	-0.187168	-0.294241	0.0127053	0.687237	0.345827	0	0	-0.0504738	-0.287012	0.00699201	0.901694	1.4809	0	0
2.31	2.40186	1.44148	-0.658379	0.519777	1.75018	0.922757	0.268422	0.0210034	-0.244556	0.325962	-0.415546	0	0	-0.357213	-0.188166	-0.353015	0.421348	-0.249257	0	0	-0.111908	0.124673	-0.343156	-0.187312	-0.294902	0.0196321	0.677872	0.342739	0	0	-0.0629277	-0.279665	-0.00546788	0.901633	1.49151	0	0
2.32	2.37827	1.4375	-0.638878	0.521204	1.76257	0.923883	0.265629	0.0279013	-0.251396	0.349569	-0.407982	0	0	-0.346526	-0.200708	-0.346782	0.464404	-0.283581	0	0	-0.108979	0.128608	-0.346465	-0.184326	-0.295861	0.0287889	0.668356	0.340729	0	0	-0.0774322	-0.271961	-0.0214577	0.89694	1.50279	0	0
2.33	2.36274	1.43239	-0.628928	0.522904	1.77473	0.925295	0.261001	0.0356534	-0.259394	0.372681	-0.394021	0	0	-0.334506	-0.213086	-0.336395	0.511241	-0.326847	0	0	-0.108433	0.132834	-0.346471	-0.185562	-0.268666	-0.0482356	0.657678	0.429801	0	0	-0.0901707	-0.263964	-0.0372388	0.890943	1.51673	0	0
2.34	2.35052	1.42625	-0.623147	0.524739	1.78669	0.926833	0.252794	0.0449515	-0.267345	0.389267	-0.38396	0	0	-0.320205	-0.225872	-0.321996	0.562539	-0.370627	0	0	-0.114188	0.136825	-0.351535	-0.172789	-0.29008	0.032027	0.64694	0.360658	0	0	-0.112518	-0.252393	-0.0743705	0.898509	1.54435	0	0
2.35	2.34033	1.42049	-0.619249	0.526682	1.79846	0.928317	0.241118	0.0545876	-0.27477	0.397935	-0.377093	0	0	-0.302269	-0.237583	-0.30081	0.618132	-0.401401	0	0	-0.115654	0.141324	-0.349138	-0.173462	-0.287745	0.027308	0.643035	0.370066	0	0	-0.123779	-0.245807	-0.0865437	0.892297	1.55208	0	0
2.36	2.33137	1.41581	-0.616408	0.528626	1.80999	0.929603	0.226902	0.063646	-0.28246	0.400032	-0.374232	0	0	-0.280385	-0.247076	-0.274346	0.677506	-0.413567	0	0	-0.114591	0.145137	-0.338554	-0.183627	-0.28067	-0.00184261	0.645472	0.391445	0	0	-0.126065	-0.244652	-0.0760643	0.878213	1.5399	0	0
2.37	2.32019	1.41259	-0.611498	0.530569	1.82139	0.930612	0.213883	0.071044	-0.291184	0.403564	-0.364319	0	0	-0.254406	-0.255318	-0.250322	0.738626	-0.440953	0	0	-0.116241	0.14712	-0.334454	-0.18438	-0.282779	0.00682401	0.643874	0.38254	0	0	-0.138399	-0.238371	-0.0901828	0.876748	1.54783	0	0
2.38	2.31029	1.4105	-0.607908	0.532472	1.83256	0.93141	0.201344	0.0771563	-0.298557	0.406928	-0.353259	0	0	-0.225637	-0.262125	-0.229308	0.80142	-0.461231	0	0	-0.116821	0.148327	-0.33088	-0.185016	-0.283672	0.0118024	0.643267	0.374644	0	0	-0.15055	-0.232585	-0.103325	0.874554	1.55401	0	0
2.39	2.30156	1.40917	-0.605427	0.534241	1.84347	0.932121	0.18897	0.0826476	-0.303679	0.409096	-0.342193	0	0	-0.195138	-0.267843	-0.211165	0.864379	-0.475388	0	0	-0.117049	0.148957	-0.327018	-0.184447	-0.283181	0.0133498	0.641433	0.366986	0	0	-0.161682	-0.227278	-0.114663	0.871458	1.55873	0	0
